<svg xmlns="http://www.w3.org/2000/svg" viewBox="0 0 64 64" role="img" aria-label="Aarnav Bhat favicon">
  <rect width="64" height="64" rx="6" fill="#030303"/>
  <path d="M14 49 26 15h6l12 34h-6l-3-9H23l-3 9h-6Zm11-15h8l-4-12-4 12Z" fill="#f8f5ee"/>
  <path d="M43 15h8c6 0 9 3 9 8 0 3-1 5-4 6 4 1 6 4 6 8 0 8-6 12-15 12h-4V15Zm6 14h2c3 0 4-2 4-5s-1-4-4-4h-2v9Zm0 15h1c5 0 7-2 7-7s-2-6-7-6h-1v13Z" fill="#aab7ff"/>
  <path d="M11 54h42" stroke="#f4b36a" stroke-width="3" stroke-linecap="square"/>
</svg>
