<svg xmlns="http://www.w3.org/2000/svg" viewBox="0 0 64 64" role="img" aria-label="Aarnav Bhat ace card logo">
  <rect width="64" height="64" rx="8" fill="#000"/>
  <rect x="12" y="7" width="40" height="50" rx="4" fill="#fff"/>
  <rect x="15" y="10" width="34" height="44" rx="2" fill="#000"/>
  <path d="M20 23h5l4 18h-4l-.6-3.1h-3.9L20 41h-4l4-18Zm1.1 11.3h2.7l-1.4-7.2-1.3 7.2Z" fill="#fff"/>
  <path d="M36 20c-5 4.7-8.5 8.3-8.5 13 0 3.5 2.5 5.9 5.7 5.9 1.7 0 3-.5 4.1-1.6-.4 2.5-1.4 4.1-3 5.7h8.9c-1.7-1.6-2.7-3.2-3.1-5.7 1.1 1.1 2.5 1.6 4.2 1.6 3.2 0 5.7-2.4 5.7-5.9 0-4.7-3.5-8.3-8.5-13L38 16.5 36 20Z" fill="#fff"/>
</svg>
